<?xml version="1.0" encoding="utf-8"?>
<!-- Generator: Adobe Illustrator 22.0.1, SVG Export Plug-In . SVG Version: 6.00 Build 0)  -->
<svg version="1.1" id="Capa_1" xmlns="http://www.w3.org/2000/svg" xmlns:xlink="http://www.w3.org/1999/xlink" x="0px" y="0px"
	 viewBox="0 0 583.3 583.3" style="enable-background:new 0 0 583.3 583.3;" xml:space="preserve">
<g>
	<g>
		<path d="M479,558.6c13,0,23.5-10.5,23.5-23.5S492,511.6,479,511.6c-5.9,0-11.2,2.2-15.3,5.8c-13.4-2.1-22.3-12.5-28.2-24.6
			c-5.7,0.3-11.4,0.4-17.2,0.4h-13.6c10,24,27.6,47.2,53.3,52.3C461.9,553.3,469.8,558.6,479,558.6z"/>
		<path d="M113.2,544.4c26.6-6.8,41.8-28.6,50-51.2h-7.8h-0.9H153c-5.8,0-13.5-0.5-22.2-2c-5.7,11.1-13.9,21.2-25.3,25
			c-3.9-2.9-8.6-4.6-13.8-4.6c-13,0-23.5,10.5-23.5,23.5s10.5,23.5,23.5,23.5C101.3,558.6,109.6,552.8,113.2,544.4z"/>
		<path d="M158.1,154.1l63.9-63.9c-8.1-8.4-35.1-25.9-43.9-28.1l-48,48C132.5,119.4,149.8,146.1,158.1,154.1z"/>
		<path d="M224.7,126.7c1.9-1.9,1.9-4.9,0-6.8l-6.8-6.8c-0.4-0.4-0.9-0.7-1.4-1c-1.8-0.8-3.9-0.5-5.3,1c-1.4,1.4-1.7,3.6-1,5.3
			c0.2,0.5,0.5,1,1,1.4l6.8,6.8c0.9,0.9,2.2,1.4,3.4,1.4C222.6,128.1,223.8,127.7,224.7,126.7z"/>
		<path d="M245,147c1.9-1.9,1.9-4.9,0-6.8l-6.8-6.8c-1.9-1.9-4.9-1.9-6.8,0s-1.9,4.9,0,6.8l6.8,6.8c0.9,0.9,2.2,1.4,3.4,1.4
			C242.8,148.4,244.1,148,245,147z"/>
		<path d="M265.3,167.3c1.9-1.9,1.9-4.9,0-6.8l-6.8-6.8c-1.9-1.9-4.9-1.9-6.8,0c-1.9,1.9-1.9,4.9,0,6.8l6.8,6.8
			c0.9,0.9,2.2,1.4,3.4,1.4C263.1,168.7,264.4,168.2,265.3,167.3z"/>
		<path d="M197.7,133.5l6.8,6.8c0.9,0.9,2.2,1.4,3.4,1.4c1.2,0,2.4-0.5,3.4-1.4c1.9-1.9,1.9-4.9,0-6.8l-6.8-6.8
			c-0.4-0.4-0.9-0.7-1.4-1c-1.8-0.8-3.9-0.5-5.3,1c-1.4,1.4-1.7,3.6-1,5.3C196.9,132.6,197.2,133.1,197.7,133.5z"/>
		<path d="M217.9,153.8l6.8,6.8c0.9,0.9,2.2,1.4,3.4,1.4c1.2,0,2.4-0.5,3.4-1.4c1.9-1.9,1.9-4.9,0-6.8l-6.8-6.8
			c-1.9-1.9-4.9-1.9-6.8,0C216.1,148.9,216.1,151.9,217.9,153.8z"/>
		<path d="M238.2,174.1l6.8,6.8c0.9,0.9,2.2,1.4,3.4,1.4c1.2,0,2.4-0.5,3.4-1.4c1.9-1.9,1.9-4.9,0-6.8l-6.8-6.8
			c-1.9-1.9-4.9-1.9-6.8,0C236.4,169.2,236.4,172.2,238.2,174.1z"/>
		<path d="M197.7,153.8c1.9-1.9,1.9-4.9,0-6.8l-6.8-6.8c-0.4-0.4-0.9-0.7-1.4-1c-1.8-0.8-3.9-0.5-5.3,1c-1.4,1.4-1.7,3.6-1,5.3
			c0.2,0.5,0.5,1,1,1.4l6.8,6.8c0.9,0.9,2.2,1.4,3.4,1.4C195.5,155.2,196.7,154.7,197.7,153.8z"/>
		<path d="M217.9,174.1c1.9-1.9,1.9-4.9,0-6.8l-6.8-6.8c-1.9-1.9-4.9-1.9-6.8,0c-1.9,1.9-1.9,4.9,0,6.8l6.8,6.8
			c0.9,0.9,2.2,1.4,3.4,1.4C215.8,175.5,217,175,217.9,174.1z"/>
		<path d="M238.2,194.4c1.9-1.9,1.9-4.9,0-6.8l-6.8-6.8c-1.9-1.9-4.9-1.9-6.8,0s-1.9,4.9,0,6.8l6.8,6.8c0.9,0.9,2.2,1.4,3.4,1.4
			C236.1,195.7,237.3,195.3,238.2,194.4z"/>
		<path d="M0,273.3l0,19.1c0,10.1,7.8,18.2,17.6,19c0.5,0,1,0.2,1.5,0.2h2.7h5.7l21.8,94.9c17.8,54.8,56,71.5,85.4,75.9l0,0
			c6.7,1,12.9,1.3,18.3,1.3h13.3c0,0,0-0.1,0-0.1c0,0,0,0.1,0,0.1l234.8,0h17.2c4.5,0,8.9-0.1,13.2-0.2c45-1.5,82.9-12.7,101.6-82
			l13.4-64.1c2.4-9.8,4.2-18.3,5.7-25.7h5.6h4.2h2.1c10.6,0,19.1-8.6,19.1-19.1v-19.1c0-10.6-8.6-19.1-19.1-19.1h-14.3H66.9V43.8
			h28.2l31.3,28.8c-1.9,7.6,0.3,15.9,2.7,22L162,61.8c-5.5-2.2-14.4-4.9-22.2-2.9l-34.4-31.6c-1.8-1.6-4.1-2.5-6.5-2.5H57.4
			c-5.3,0-9.6,4.3-9.6,9.6v219.9H33.5H19.1C8.6,254.2,0,262.7,0,273.3z M171.5,454.2c0-0.1,0-0.1,0-0.2l0,0
			C171.6,454.1,171.5,454.1,171.5,454.2z"/>
	</g>
</g>
</svg>
