<?xml version="1.0" encoding="iso-8859-1"?>
<!-- Generator: Adobe Illustrator 18.0.0, SVG Export Plug-In . SVG Version: 6.00 Build 0)  -->
<!DOCTYPE svg PUBLIC "-//W3C//DTD SVG 1.1//EN" "http://www.w3.org/Graphics/SVG/1.1/DTD/svg11.dtd">
<svg version="1.1" id="Capa_1" xmlns="http://www.w3.org/2000/svg" xmlns:xlink="http://www.w3.org/1999/xlink" x="0px" y="0px"
	 viewBox="0 0 59 59" style="enable-background:new 0 0 59 59;" xml:space="preserve">
<g>
	<circle cx="22.489" cy="35" r="1"/>
	<circle cx="22.489" cy="39" r="1"/>
	<circle cx="36.5" cy="35" r="1"/>
	<circle cx="36.5" cy="39" r="1"/>
	<path d="M26.489,0c-0.553,0-1,0.447-1,1v13c0,1.302-0.839,2.402-2,2.816V1c0-0.553-0.447-1-1-1s-1,0.447-1,1v15.816
		c-1.161-0.414-2-1.514-2-2.816V1c0-0.553-0.447-1-1-1s-1,0.447-1,1v13c0,2.414,1.721,4.434,4,4.899v10.243
		c-1.72,0.447-3,1.999-3,3.858v22c0,2.206,1.794,4,4,4s4-1.794,4-4V33c0-1.859-1.28-3.411-3-3.858V18.899
		c2.279-0.465,4-2.484,4-4.899V1C27.489,0.447,27.042,0,26.489,0z M24.489,33v22c0,1.103-0.897,2-2,2s-2-0.897-2-2V33
		c0-1.103,0.897-2,2-2S24.489,31.897,24.489,33z"/>
	<path d="M39.431,1.682C38.305,0.55,36.692,0,34.5,0c-0.553,0-1,0.447-1,1v29c0,0.109,0.03,0.209,0.062,0.307
		C32.909,31.019,32.5,31.959,32.5,33v22c0,2.206,1.794,4,4,4s4-1.794,4-4V33c0-1.281-0.616-2.411-1.556-3.144
		c2.551-3.304,2.558-8.191,2.556-15.296l0.006-2.206C41.53,7.582,41.551,3.813,39.431,1.682z M38.5,55c0,1.103-0.897,2-2,2
		s-2-0.897-2-2V33c0-1.103,0.897-2,2-2s2,0.897,2,2V55z M39.506,12.344L39.5,14.561c0.002,7.034-0.005,11.743-2.491,14.491
		C36.841,29.03,36.674,29,36.5,29c-0.347,0-0.678,0.058-1,0.142V2.059c1.11,0.124,1.943,0.46,2.513,1.033
		C39.546,4.634,39.528,8.036,39.506,12.344z"/>
</g>
<g>
</g>
<g>
</g>
<g>
</g>
<g>
</g>
<g>
</g>
<g>
</g>
<g>
</g>
<g>
</g>
<g>
</g>
<g>
</g>
<g>
</g>
<g>
</g>
<g>
</g>
<g>
</g>
<g>
</g>
</svg>
