<?xml version="1.0" encoding="iso-8859-1"?>
<!-- Generator: Adobe Illustrator 19.0.0, SVG Export Plug-In . SVG Version: 6.00 Build 0)  -->
<svg version="1.1" id="Layer_1" xmlns="http://www.w3.org/2000/svg" xmlns:xlink="http://www.w3.org/1999/xlink" x="0px" y="0px"
	 viewBox="0 0 512 512" style="enable-background:new 0 0 512 512;" xml:space="preserve">
<g>
	<rect x="115.937" y="112.045" style="fill:#1D1D1B;" width="96.037" height="15.777"/>
	<polygon style="fill:#1D1D1B;" points="212.095,23.896 227.872,23.896 227.872,0 139.948,0 139.948,15.777 212.095,15.777 	"/>
	<path style="fill:#1D1D1B;" d="M76.035,512h175.848V136.062H76.035V512z M91.811,151.838h144.295v200.32H91.811V151.838z
		 M91.811,367.934h144.295v64.26H91.811V367.934z M91.811,447.971h144.295v48.252H91.811V447.971z"/>
	<polygon style="fill:#1D1D1B;" points="156.07,23.896 156.07,88.04 147.951,88.04 147.951,103.816 179.966,103.816 179.966,88.04 
		171.847,88.04 171.847,23.896 	"/>
	<rect x="107.933" y="384.171" style="fill:#1D1D1B;" width="112.045" height="15.777"/>
	<rect x="139.949" y="408.183" style="fill:#1D1D1B;" width="48.022" height="15.777"/>
	<path style="fill:#1D1D1B;" d="M300.135,128.058V512h135.83V128.058H300.135z M420.189,496.223H315.912V276.739l104.277-55.614
		V496.223z M420.189,203.247l-104.277,55.612V143.834h104.277V203.247z"/>
	<rect x="332.034" y="160.069" style="fill:#1D1D1B;" width="24.011" height="15.777"/>
	<rect x="332.034" y="368.163" style="fill:#1D1D1B;" width="72.036" height="15.777"/>
	<rect x="332.034" y="392.175" style="fill:#1D1D1B;" width="72.036" height="15.777"/>
	<rect x="348.042" y="416.187" style="fill:#1D1D1B;" width="40.02" height="15.777"/>
</g>
<g>
</g>
<g>
</g>
<g>
</g>
<g>
</g>
<g>
</g>
<g>
</g>
<g>
</g>
<g>
</g>
<g>
</g>
<g>
</g>
<g>
</g>
<g>
</g>
<g>
</g>
<g>
</g>
<g>
</g>
</svg>
