<?xml version="1.0" encoding="iso-8859-1"?>
<!-- Generator: Adobe Illustrator 18.0.0, SVG Export Plug-In . SVG Version: 6.00 Build 0)  -->
<!DOCTYPE svg PUBLIC "-//W3C//DTD SVG 1.1//EN" "http://www.w3.org/Graphics/SVG/1.1/DTD/svg11.dtd">
<svg version="1.1" id="Capa_1" xmlns="http://www.w3.org/2000/svg" xmlns:xlink="http://www.w3.org/1999/xlink" x="0px" y="0px"
	 viewBox="0 0 367.689 367.689" style="enable-background:new 0 0 367.689 367.689;" xml:space="preserve">
<g>
	<g>
		<g>
			<path d="M241.918,110.55c-1.986,0-3.967-0.784-5.442-2.338l-31.85-33.567c-2.851-3.004-2.726-7.752,0.278-10.603
				c3.005-2.852,7.752-2.726,10.603,0.279l31.85,33.566c2.851,3.004,2.727,7.752-0.278,10.603
				C245.628,109.867,243.771,110.55,241.918,110.55z"/>
		</g>
		<g>
			<path d="M271.948,110.55c-1.986,0-3.968-0.784-5.442-2.338l-31.849-33.567c-2.851-3.005-2.726-7.752,0.279-10.603
				c3.005-2.85,7.753-2.725,10.603,0.279l31.849,33.566c2.851,3.005,2.726,7.752-0.279,10.603
				C275.658,109.867,273.801,110.55,271.948,110.55z"/>
		</g>
		<g>
			<path d="M301.977,110.55c-1.986,0-3.967-0.784-5.442-2.338l-31.85-33.567c-2.851-3.004-2.727-7.752,0.278-10.603
				c3.005-2.852,7.752-2.726,10.603,0.279l31.85,33.566c2.851,3.004,2.727,7.752-0.278,10.603
				C305.687,109.867,303.83,110.55,301.977,110.55z"/>
		</g>
	</g>
	<path d="M252.684,324.261c4.142,0,7.5-3.358,7.5-7.5v-17.132c7.516-3.795,17.446-13.012,22.475-35.422
		c8.234-36.696,13.533-57.787,18.289-72.796c7.462-23.551,20.028-40.662,26.541-48.463c14.459-15.15,23.24-34.948,23.266-56.588
		c0.001-0.03,0.001-0.061,0.001-0.092C350.754,38.699,308.463,0,256.481,0c-0.091,0-0.182,0.001-0.272,0.005
		c-2.287,0.083-56.813,2.422-159.417,36.376L49.169,22.225c-0.694-0.207-1.414-0.311-2.137-0.311
		c-19.759,0-30.097,32.374-30.097,64.353c0,31.98,10.338,64.354,30.097,64.354c0.724,0,1.443-0.105,2.137-0.311l47.622-14.157
		c57.011,18.866,99.169,27.969,125.78,32.35c2.447,3.475,7.102,11.568,3.139,18.362c-1.337,2.294-3.172,5.058-5.296,8.258
		c-10.428,15.711-26.186,39.454-18.964,62.229c6.302,19.875,12.75,34.429,14.906,39.104v20.305c0,4.142,3.358,7.5,7.5,7.5h6.914
		v15.445c0,15.429,12.553,27.983,27.984,27.983h76.98c4.142,0,7.5-3.358,7.5-7.5s-3.358-7.5-7.5-7.5h-76.979
		c-7.16-0.001-12.984-5.825-12.984-12.983v-15.445H252.684z M89.411,122.698l-43.074,12.805
		c-4.818-1.542-14.402-18.248-14.402-49.236c0-30.987,9.584-47.692,14.402-49.235l43.075,12.804L89.411,122.698z M231.355,309.261
		v-6.976h13.828v6.976H231.355z M104.411,122.872l0-73.212C200.672,18.101,253.842,15.135,256.641,15
		c43.609,0.078,79.065,31.972,79.113,71.184c-0.001,0.027-0.001,0.055-0.001,0.083c0,39.249-35.479,71.189-79.117,71.267
		C253.798,157.401,200.922,154.516,104.411,122.872z M238.069,195.413h5.923c3.023,0,5.675,3.888,5.675,8.319
		c0,4.432-2.652,8.32-5.675,8.32h-16.688C229.231,208.965,236.601,197.845,238.069,195.413z M215.748,252.817
		c-2.534-7.992-0.431-17.045,3.411-25.765h24.833c11.4,0,20.675-10.461,20.675-23.32c0-12.858-9.275-23.319-20.675-23.319h-1.706
		c-0.083-3.311-0.748-6.457-1.703-9.309c9.703,1.178,15.807,1.427,15.897,1.43c14.349,0.438,27.195-2.79,39.117-7.786
		c-3.272,6.618-6.376,14.008-8.95,22.131c-4.894,15.448-10.29,36.899-18.625,74.043c-5.563,24.793-16.611,26.283-17.523,26.363
		h-21.82C225.962,281.125,220.778,268.683,215.748,252.817z"/>
</g>
<g>
</g>
<g>
</g>
<g>
</g>
<g>
</g>
<g>
</g>
<g>
</g>
<g>
</g>
<g>
</g>
<g>
</g>
<g>
</g>
<g>
</g>
<g>
</g>
<g>
</g>
<g>
</g>
<g>
</g>
</svg>
